<svg id="Layer_1" data-name="Layer 1" xmlns="http://www.w3.org/2000/svg" viewBox="0 0 360 360"><defs><style>.cls-1{fill:#7a9698;}</style></defs><title>scd-icons</title><path class="cls-1" d="M230.25,326.14c-17.49,0-22.54-20.5-26.23-35.46-.59-2.38-1.14-4.63-1.73-6.78-1.59-5.84-2.72-12.13-3.81-18.22C194.35,242.76,191.19,232,180,232c-12.51,0-15.26,9.79-18.56,32.13a171.71,171.71,0,0,1-3.71,19.79c-.57,2.1-1.11,4.31-1.69,6.64-3.72,15.11-8.77,35.61-26.26,35.61-28.47,0-44.76-54-56.66-93.51-1.9-6.32-3.7-12.28-5.28-17-1.17-3.51-2.26-7-3.32-10.36l-2.93-10.14-.08.13-2.81-10.12h.09C45.57,134,46.65,95.82,62,71.48c11.17-17.69,25.74-26.28,44.53-26.28,15.27,0,30.9,5.85,44.68,11,10.91,4.08,21.21,7.94,28.79,7.94s17.89-3.86,28.79-7.94c13.78-5.16,29.4-11,44.68-11,18.8,0,33.36,8.6,44.53,26.28,14.66,23.21,16.34,59.08,5,106.62l-.1.42L301,185.87c-2.56,9.78-5.54,19.79-8.86,29.75-1.55,4.65-3.26,10.33-5.25,16.91C275,272.1,258.71,326.14,230.25,326.14ZM180,226.85c16.66,0,20,18.42,23.49,37.92,1.07,6,2.18,12.16,3.71,17.78.59,2.19,1.16,4.48,1.76,6.9,3.65,14.8,7.78,31.57,21.26,31.57,24.66,0,41-54.08,51.76-89.86,2-6.72,3.75-12.43,5.33-17.16,3.29-9.85,6.23-19.75,8.76-29.43l1.82-7.18,2.54.4-2.49-.6c11.11-46.29,9.68-80.94-4.25-103-10.16-16.08-23.31-23.9-40.21-23.9C239.15,50.31,224,56,210.61,61c-11.35,4.25-22.07,8.27-30.59,8.27s-19.23-4-30.59-8.27c-13.38-5-28.54-10.69-42.88-10.69-16.9,0-30,7.82-40.21,23.9-14.89,23.58-15.49,61.5-1.76,112.71l1.94,6.73,2.92,10.1c1,3.36,2.12,6.76,3.28,10.24,1.6,4.8,3.41,10.8,5.32,17.15C88.84,266.94,105.14,321,129.81,321c13.48,0,17.61-16.77,21.26-31.57.62-2.51,1.17-4.75,1.75-6.9a167.34,167.34,0,0,0,3.58-19.15C159.3,243.77,161.79,226.85,180,226.85Z"/><path class="cls-1" d="M181.35,169.68c-72.8,0-138.73-30.42-176.77-81.69a2.56,2.56,0,0,1,4.11-3c37.51,50.55,103,80.23,175.16,79.61,70.39-.69,133-30,167.48-78.44a2.56,2.56,0,0,1,4.17,3c-35.43,49.76-99.58,79.89-171.6,80.59Z"/><path class="cls-1" d="M190.55,198.82h-21a25.63,25.63,0,0,1-25.6-25.6V159.15a25.63,25.63,0,0,1,25.6-25.6h21a25.63,25.63,0,0,1,25.6,25.6v14.07A25.63,25.63,0,0,1,190.55,198.82Zm-21-60.14A20.5,20.5,0,0,0,149,159.15v14.07a20.5,20.5,0,0,0,20.48,20.48h21A20.5,20.5,0,0,0,211,173.22V159.15a20.5,20.5,0,0,0-20.48-20.48Z"/></svg>